<?xml version="1.0" encoding="UTF-8" standalone="no"?>
<!DOCTYPE svg PUBLIC "-//W3C//DTD SVG 1.1//EN" "http://www.w3.org/Graphics/SVG/1.1/DTD/svg11.dtd">
<svg version="1.1" xmlns="http://www.w3.org/2000/svg" xmlns:xlink="http://www.w3.org/1999/xlink" preserveAspectRatio="xMidYMid meet" viewBox="0 0 640 640" width="640" height="640"><defs><path d="M440.01 60L440.03 59.18L440.08 58.36L440.16 57.55L440.27 56.76L440.42 55.97L440.59 55.2L440.8 54.43L441.03 53.68L441.29 52.94L441.58 52.22L441.9 51.51L442.25 50.81L442.61 50.13L443.01 49.47L443.43 48.82L443.87 48.19L444.34 47.58L444.83 46.99L445.34 46.41L445.87 45.86L446.43 45.33L447 44.82L447.59 44.33L448.2 43.86L448.83 43.42L449.48 43L450.14 42.6L450.82 42.23L451.52 41.89L452.23 41.57L452.95 41.28L453.69 41.02L454.44 40.79L455.21 40.58L455.98 40.41L456.77 40.26L457.56 40.15L458.37 40.07L459.19 40.02L460.01 40L540.01 40L540.83 40.02L541.64 40.07L542.45 40.15L543.25 40.26L544.03 40.41L544.81 40.58L545.57 40.79L546.32 41.02L547.06 41.28L547.79 41.57L548.5 41.89L549.19 42.23L549.87 42.6L550.54 43L551.18 43.42L551.81 43.86L552.43 44.33L553.02 44.82L553.59 45.33L554.14 45.86L554.68 46.41L555.19 46.99L555.68 47.58L556.14 48.19L556.59 48.82L557.01 49.47L557.4 50.13L557.77 50.81L558.11 51.51L558.43 52.22L558.72 52.94L558.98 53.68L559.22 54.43L559.42 55.2L559.6 55.97L559.74 56.76L559.86 57.55L559.94 58.36L559.99 59.18L560 60L560 270L640 360L560 360C564.63 384.17 557.97 402.05 540.01 413.64C522.04 425.23 492.78 430.53 452.23 429.55L452.23 640L450.14 639.06L381.93 640L381.93 639.95L381.95 639.06L381.95 444.81L381.93 443.92L381.88 443.04L381.8 442.17L381.68 441.31L381.53 440.46L381.35 439.63L381.14 438.8L380.9 437.99L380.63 437.19L380.33 436.41L380 435.64L379.64 434.89L379.26 434.16L378.86 433.44L378.42 432.75L377.96 432.07L377.48 431.41L376.98 430.77L376.45 430.15L375.9 429.55L375.33 428.98L374.74 428.42L374.13 427.9L373.5 427.39L372.85 426.91L372.18 426.46L371.49 426.04L370.79 425.64L370.07 425.27L369.34 424.92L368.59 424.61L367.83 424.33L367.05 424.07L366.26 423.85L365.46 423.66L364.65 423.51L363.83 423.39L363 423.3L362.16 423.24L361.31 423.23L278.73 423.23L277.88 423.24L277.04 423.3L276.21 423.39L275.38 423.51L274.57 423.66L273.77 423.85L272.98 424.07L272.21 424.33L271.45 424.61L270.7 424.92L269.96 425.27L269.25 425.64L268.54 426.04L267.86 426.46L267.19 426.91L266.54 427.39L265.91 427.9L265.3 428.42L264.71 428.98L264.14 429.55L263.59 430.15L263.06 430.77L262.55 431.41L262.07 432.07L261.61 432.75L261.18 433.44L260.77 434.16L260.39 434.89L260.04 435.64L259.71 436.41L259.41 437.19L259.14 437.99L258.9 438.8L258.69 439.63L258.51 440.46L258.36 441.31L258.24 442.17L258.15 443.04L258.1 443.92L258.09 444.81L258.09 639.06L258.1 639.95L258.1 640L80.03 640L80.03 360L0.04 360L320.02 0L440.01 135L440.01 60Z" id="bWHel7U8e"></path><path d="M540.81 416.22C526.06 425.13 500.79 428.03 464.99 424.91C458.84 424.37 453.55 429.22 453.55 435.39C453.55 476.31 453.55 587.6 453.55 628.52C453.55 634.86 448.41 640 442.07 640C430.31 640 406.5 640 394.74 640C388.4 640 383.26 634.86 383.26 628.52C383.26 587.6 383.26 476.31 383.26 435.39C383.26 429.05 378.12 423.91 371.78 423.91C361.43 423.91 341.85 423.91 331.5 423.91C325.16 423.91 320.02 418.77 320.02 412.43C320.02 402.42 320.02 383.85 320.02 373.84C320.02 367.5 325.16 362.36 331.5 362.36C376.27 362.36 499.1 362.36 543.87 362.36C550.45 362.36 556.01 367.22 556.9 373.73C559.65 393.91 554.28 408.07 540.81 416.22Z" id="a3mcU7nnY9"></path></defs><g><g><g><use xlink:href="#bWHel7U8e" opacity="1" fill="#080505" fill-opacity="1"></use></g><g><use xlink:href="#a3mcU7nnY9" opacity="1" fill="#f81609" fill-opacity="1"></use><g><use xlink:href="#a3mcU7nnY9" opacity="1" fill-opacity="0" stroke="#ffffff" stroke-width="10" stroke-opacity="1"></use></g></g></g></g></svg>